# xmcd
#
# Track frame offsets: 
#        150
#        13183
#        25790
#        38993
#        51858
#        65423
#        77435
#        90690
#        102268
#        115478
#        132562
#        143857
#        157127
#        170454
#        184021
#        196141
#        207839
#        220825
#        233538
#        247030
#
# Disc length: 3476 seconds
#
# Revision: 0
# Processed by: cddbd v1.5.2PL0 Copyright (c) Steve Scherf et al.
# Submitted via: ExactAudioCopy v0.95b3
#
DISCID=190d9214
DTITLE=James Brown  - The Singles Volume 2 1960 - 1963 [CD2]
DYEAR=1900
DGENRE=
TTITLE0=Shout And Shimmy
TTITLE1=Come Over Here
TTITLE2=Mashed Potatoes USA
TTITLE3=You Don't Have To Go
TTITLE4=(Can You) Feel It - Part 1
TTITLE5=(Can You) Feel It - Part 2
TTITLE6=Three Hearts In A Tangle
TTITLE7=I've Got Money
TTITLE8=Like A Baby
TTITLE9=Every Beat Of My Heart
TTITLE10=Prisoner Of Love
TTITLE11=Choo-Choo
TTITLE12=These Foolish Things
TTITLE13=(Can You) Feel It - Part 1
TTITLE14=Devil's Den - Part 1
TTITLE15=Devil's Den - Part 2
TTITLE16=Signed, Sealed, And Delivered
TTITLE17=Waiting In Vain
TTITLE18=Oh Baby Don't You Weep - Part 1
TTITLE19=Oh Baby Don't You Weep - Part 2
EXTD=
EXTT0=
EXTT1=
EXTT2=
EXTT3=
EXTT4=
EXTT5=
EXTT6=
EXTT7=
EXTT8=
EXTT9=
EXTT10=
EXTT11=
EXTT12=
EXTT13=
EXTT14=
EXTT15=
EXTT16=
EXTT17=
EXTT18=
EXTT19=
PLAYORDER=
